<?xml version="1.0" standalone="no"?>
<!DOCTYPE svg PUBLIC "-//W3C//DTD SVG 20010904//EN"
 "http://www.w3.org/TR/2001/REC-SVG-20010904/DTD/svg10.dtd">
<svg version="1.0" xmlns="http://www.w3.org/2000/svg"
 width="256.000000pt" height="256.000000pt" viewBox="0 0 256.000000 256.000000"
 preserveAspectRatio="xMidYMid meet">
<metadata>
Created by potrace 1.11, written by Peter Selinger 2001-2013
</metadata>
<g transform="translate(0.000000,256.000000) scale(0.100000,-0.100000)"
fill="#000000" stroke="none">
<path d="M390 1656 l0 -886 235 0 235 0 0 -108 c0 -167 37 -277 132 -395 98
-122 241 -212 388 -243 98 -21 259 -14 350 15 189 60 373 239 431 419 33 102
37 262 10 374 -62 259 -274 482 -504 530 -55 12 -58 14 -53 38 31 143 38 212
32 328 l-6 123 41 -29 c47 -35 91 -93 108 -141 15 -47 14 -130 -4 -180 -17
-50 0 -56 21 -6 23 55 18 161 -10 222 -27 57 -90 124 -135 143 -23 9 -34 24
-47 64 -90 276 -342 507 -639 587 -69 19 -115 22 -332 26 l-253 5 0 -886z
m535 829 c202 -56 401 -217 500 -406 28 -54 75 -169 75 -184 0 -2 -17 -6 -37
-10 -185 -34 -295 -263 -210 -437 31 -63 77 -109 143 -141 25 -12 44 -28 44
-37 0 -34 -120 -198 -198 -271 -82 -77 -161 -126 -258 -159 -85 -30 -87 -28
-65 30 51 135 175 272 303 335 51 25 75 42 71 51 -4 11 -11 11 -41 -2 -132
-54 -267 -184 -332 -318 -22 -45 -40 -90 -40 -99 0 -29 -45 -37 -206 -37
l-154 0 0 856 0 857 173 -6 c115 -3 192 -11 232 -22z m592 -672 c17 -122 2
-356 -26 -402 -7 -10 -14 -10 -37 2 -71 37 -104 103 -104 210 0 115 31 182
105 228 46 29 53 24 62 -38z m181 -589 c78 -29 133 -67 198 -135 90 -96 136
-201 153 -348 24 -219 -49 -425 -201 -566 -107 -99 -224 -142 -365 -132 -166
12 -308 82 -434 215 -112 116 -168 251 -169 398 0 117 0 117 98 142 162 42
287 115 412 242 41 42 95 109 120 148 l45 72 40 -6 c22 -4 68 -17 103 -30z"/>
<path d="M390 455 c0 -176 2 -205 15 -205 13 0 15 21 15 130 l0 130 37 0 c43
0 103 41 103 71 0 51 -45 79 -126 79 l-44 0 0 -205z m118 179 c15 -10 22 -25
22 -49 0 -41 -29 -65 -77 -65 l-33 0 0 65 0 65 33 0 c18 0 43 -7 55 -16z"/>
<path d="M650 657 c0 -2 14 -71 30 -152 17 -81 30 -172 30 -202 0 -29 5 -53
10 -53 19 0 10 144 -16 278 -19 91 -31 132 -40 132 -8 0 -14 -2 -14 -3z"/>
<path d="M551 471 c35 -35 39 -44 39 -89 0 -46 -4 -55 -36 -88 l-36 -36 31 17
c39 20 71 70 71 110 0 40 -32 90 -69 110 -43 22 -43 19 0 -24z"/>
</g>
</svg>
