<?xml version="1.0" encoding="utf-8"?>
<!-- Generator: Adobe Illustrator 21.1.0, SVG Export Plug-In . SVG Version: 6.00 Build 0)  -->
<svg version="1.1" id="Capa_1" xmlns="http://www.w3.org/2000/svg" xmlns:xlink="http://www.w3.org/1999/xlink" x="0px" y="0px"
	 viewBox="0 0 512 512" style="enable-background:new 0 0 512 512;" xml:space="preserve">
<g>
	<g id="Bag">
		<g>
			<path d="M465,146c-0.8-8.2-12.5-23.1-20.8-23.1L352,120V96c0-52.9-43-96-96-96c-52.9,0-96,42.1-96,95v24L79.2,121
				c-8.3,0-28.5,13.7-29.2,22L0,488c-0.4,4.5-14.2,30.7,22,25.5c3,3.3-1.5-1.5,3-1.5h460c7.1,2.6,29,0.7,32-2.6
				c3-3.3,3.6-16.4,1.7-21.4L465,146z M192,96c0-35.3,28.7-52,64-52s64,16.7,64,52v23H192V96z M91.3,434.1L125.2,182l34.8,0.3v14.1
				c-9.5,5.6-16,15.8-16,27.6c0,17.7,14.3,32,32,32s32-14.3,32-32c0-11.8-6.5-22-16-27.6l-1.6-17.4l130.3-0.8l-0.7,18.2
				c-9.5,5.6-16,15.7-16,27.6c0,17.7,14.3,32,32,32s32-14.3,32-32c0-11.8-6.4-22-16-27.6v-18.2l35.5,0.4L421,433.3L91.3,434.1z"/>
		</g>
	</g>
</g>
</svg>
